<?xml version="1.0" encoding="UTF-8"?><svg xmlns="http://www.w3.org/2000/svg" viewBox="0 0 270 483.86"><defs><style>.d{fill:#fff;}</style></defs><g id="a"/><g id="b"><g id="c"><g><g><path class="d" d="M118.47,212.62H0V0H118.47V44.78H44.78v46.85h59.9v38.99H44.78v37.22H118.47v44.78Z"/><path class="d" d="M170.08,142.34c-9.41-2.27-17.14-7.14-23.22-14.6-6.07-7.46-9.11-16.13-9.11-26.02V41.51c0-11.46,4.04-21.25,12.15-29.35C158,4.05,167.8,0,179.26,0h90.74V212.62h-44.77v-69.24h-6.25l-31.86,69.24h-49.38l32.33-70.28Zm55.16-43.74V44.78h-35.15c-2.08,0-3.87,.74-5.34,2.22-1.49,1.48-2.23,3.26-2.23,5.34v38.55c0,2.17,.73,4,2.23,5.49,1.47,1.48,3.26,2.22,5.34,2.22h35.15Z"/></g><path class="d" d="M132.22,305.12v50.84h-44.69v-35.33c0-2.09-.77-3.85-2.31-5.28-.66-.66-1.43-1.21-2.2-1.65-.88-.44-1.98-.66-3.08-.66h-27.63c-2.09,0-3.85,.77-5.28,2.31-1.54,1.43-2.2,3.19-2.2,5.28v110.95c0,2.09,.66,3.85,2.2,5.28,1.43,1.54,3.19,2.31,5.28,2.31h27.63c1.1,0,2.2-.22,3.08-.66,.77-.44,1.54-.99,2.2-1.65,1.54-1.43,2.31-3.19,2.31-5.28v-35.33h44.69v50.84c0,20.31-16.47,36.78-36.78,36.78H.03v-215.51H95.44c20.31,0,36.78,16.47,36.78,36.78Z"/><path class="d" d="M151.53,437.64h73.7v-37.22h-59.91v-39h59.91v-46.85h-73.7v-44.77h118.47v212.62h-118.47v-44.77Z"/><rect class="d" x="143.85" y="233.2" width="126.15" height="14.57" transform="translate(413.85 480.97) rotate(180)"/><rect class="d" y="233.2" width="126.15" height="14.57" transform="translate(126.15 480.97) rotate(180)"/></g></g></g></svg>